# xmcd
#
# Track frame offsets: 
#        150
#        18155
#        34182
#        53749
#        72132
#        90448
#        110077
#        128211
#        145756
#        163116
#        182076
#        199171
#        226153
#
# Disc length: 3252 seconds
#
# Revision: 0
# Processed by: cddbd v1.5.1PL2 Copyright (c) Steve Scherf et al.
# Submitted via: ExactAudioCopy v0.95b3
#
DISCID=aa0cb20d
DTITLE=The Groove Divinities - The Groove Divinities
DYEAR=2005
DGENRE=Blues
TTITLE0=Lie To Me
TTITLE1=Methodonia
TTITLE2=Neopolytan
TTITLE3=Turnaround
TTITLE4=American Thang
TTITLE5=Playin' Yer Soul
TTITLE6=Bleedin' Heart
TTITLE7=Don't Leave
TTITLE8=Tomorrow
TTITLE9=Jail
TTITLE10=World Turns
TTITLE11=Mainline
TTITLE12=Change Gonna Come
EXTD=
EXTT0=
EXTT1=
EXTT2=
EXTT3=
EXTT4=
EXTT5=
EXTT6=
EXTT7=
EXTT8=
EXTT9=
EXTT10=
EXTT11=
EXTT12=
PLAYORDER=
